<?xml version="1.0" encoding="utf-8"?>
<!-- Generator: Adobe Illustrator 20.1.0, SVG Export Plug-In . SVG Version: 6.00 Build 0)  -->
<svg version="1.1" id="Layer_1" xmlns="http://www.w3.org/2000/svg" xmlns:xlink="http://www.w3.org/1999/xlink" x="0px" y="0px"
	 viewBox="0 0 1024 500" style="enable-background:new 0 0 1024 500;" xml:space="preserve">
<style type="text/css">
	.st0{fill:#2A383C;}
	.st1{opacity:0.5;}
	.st2{fill:#F7932D;}
	.st3{fill:#E91589;}
	.st4{fill:#0A96CF;}
	.st5{fill:#18B1D3;}
	.st6{enable-background:new    ;}
	.st7{fill:#FFFFFF;}
</style>
<rect class="st0" width="1024" height="500"/>
<g class="st1">
	<g>
		<g>
			<path class="st2" d="M430.3,302.7c-1.6,0-3.2-0.8-4.1-2.4c-17.8-30.5-18-68.5-0.7-99.3c1.3-2.3,4.2-3.1,6.5-1.8s3.1,4.2,1.8,6.5
				c-15.7,27.8-15.5,62.3,0.6,89.8c1.3,2.3,0.6,5.2-1.7,6.5C431.9,302.4,431.1,302.7,430.3,302.7z"/>
		</g>
		<g>
			<path class="st3" d="M594.6,303.3c-0.8,0-1.7-0.2-2.4-0.7c-2.3-1.3-3-4.3-1.7-6.5c16.5-28,16.8-62.9,0.6-91.1
				c-1.3-2.3-0.5-5.2,1.8-6.5s5.2-0.5,6.5,1.8c17.9,31.2,17.6,69.8-0.7,100.7C597.9,302.5,596.3,303.3,594.6,303.3z"/>
		</g>
		<g>
			<path class="st4" d="M464.1,172.8c-1.6,0-3.2-0.8-4.1-2.3c-1.3-2.3-0.6-5.2,1.7-6.5c30.9-18.3,69.5-18.5,100.7-0.7
				c2.3,1.3,3.1,4.2,1.8,6.5s-4.2,3.1-6.5,1.8c-28.2-16.2-63.2-15.9-91.1,0.6C465.7,172.5,464.9,172.8,464.1,172.8z"/>
		</g>
		<g>
			<path class="st5" d="M512.5,350c-17.4,0-34.8-4.5-50.2-13.5c-2.3-1.3-3-4.2-1.7-6.5s4.3-3,6.5-1.7c27.6,16.1,62,16.3,89.8,0.6
				c2.3-1.3,5.2-0.5,6.5,1.8s0.5,5.2-1.8,6.5C546.5,345.7,529.5,350,512.5,350z"/>
		</g>
	</g>
</g>
<g class="st6">
	<path class="st7" d="M357.2,267.2c-1.9,0-3.5-1.6-3.5-3.5v-33.7c0-1.9,1.6-3.5,3.6-3.5c1.9,0,3.5,1.6,3.5,3.5v33.7
		C360.9,265.6,359.2,267.2,357.2,267.2z"/>
	<path class="st7" d="M401.4,233.1h-9.3v30.5c0,1.9-1.6,3.5-3.7,3.5c-2,0-3.5-1.6-3.5-3.5v-30.5h-9.3c-1.7,0-3.1-1.4-3.1-3.2
		c0-1.7,1.4-3.1,3.1-3.1h25.8c1.7,0,3.1,1.4,3.1,3.2C404.5,231.7,403,233.1,401.4,233.1z"/>
	<path class="st7" d="M433.7,267.6c-11.6,0-21-8.2-21-20.8c0-12.5,9.4-20.7,21-20.7c6.3,0,10.9,2.4,14,5.7c0.6,0.6,0.9,1.4,0.9,2.3
		c0,1.8-1.6,3.2-3.4,3.2c-0.9,0-1.7-0.4-2.4-1c-2.4-2.4-5.8-3.8-9.2-3.8c-7.9,0-13.7,6-13.7,14.3c0,8.3,5.8,14.3,13.7,14.3
		c4,0,7.6-1.9,9.4-3.5v-6.1H434c-1.7,0-3.1-1.4-3.1-3.2c0-1.7,1.4-3.1,3.1-3.1h11.9c2.4,0,4.3,2,4.3,4.3v7.3
		C450.2,263.7,441.4,267.6,433.7,267.6z"/>
	<path class="st7" d="M493.9,267.2c-1.5,0-2.9-0.9-3.5-2.3l-2.1-5.6h-18.2l-2.2,5.6c-0.5,1.4-2,2.3-3.5,2.3c-2.3,0-3.8-1.9-3.8-3.8
		c0-0.4,0.1-0.9,0.3-1.3l12.5-31.8c0.9-2.3,3.1-3.8,5.6-3.8c2.6-0.1,5,1.4,6,3.8l12.5,31.8c0.1,0.4,0.2,0.9,0.2,1.3
		C497.7,265.2,496.2,267.2,493.9,267.2z M479.2,234l-7.1,18.9h14.2L479.2,234z"/>
	<path class="st7" d="M527.4,252h-10.6v11.7c0,1.9-1.6,3.5-3.7,3.5c-1.9,0-3.5-1.6-3.5-3.5v-32.5c0-2.3,1.9-4.3,4.3-4.3h13.4
		c8.4,0,13.1,5.8,13.1,12.6C540.4,246.2,535.7,252,527.4,252z M526.4,233.1h-9.6v12.5h9.6c3.9,0,6.7-2.5,6.7-6.2
		C533.1,235.6,530.3,233.1,526.4,233.1z"/>
	<path class="st7" d="M570,252h-10.6v11.7c0,1.9-1.6,3.5-3.7,3.5c-1.9,0-3.5-1.6-3.5-3.5v-32.5c0-2.3,1.9-4.3,4.3-4.3H570
		c8.4,0,13.1,5.8,13.1,12.6C583,246.2,578.3,252,570,252z M569,233.1h-9.6v12.5h9.6c3.9,0,6.7-2.5,6.7-6.2
		C575.7,235.6,572.9,233.1,569,233.1z"/>
	<path class="st7" d="M619.6,266.8h-20.5c-2.4,0-4.3-2-4.3-4.3v-31.4c0-2.3,1.9-4.3,4.3-4.3h20.5c1.7,0,3.1,1.4,3.1,3.2
		c0,1.7-1.4,3.1-3.1,3.1H602v10.2h17.2c1.7,0,3.1,1.4,3.1,3.2c0,1.7-1.4,3.1-3.1,3.1H602v10.9h17.6c1.7,0,3.1,1.4,3.1,3.1
		C622.7,265.5,621.3,266.8,619.6,266.8z"/>
	<path class="st7" d="M665.9,267.2c-1.4,0-2.8-0.7-3.6-1.8l-19.6-26.9v25.1c0,1.9-1.6,3.5-3.7,3.5c-1.9,0-3.5-1.6-3.5-3.5V231
		c0-2.3,2-4.5,4.6-4.5c1.5,0,3,0.7,3.9,1.9l19.1,25.9v-24.4c0-1.9,1.6-3.5,3.7-3.5c1.9,0,3.5,1.6,3.5,3.5v33
		C670.3,265.2,668.5,267.2,665.9,267.2z"/>
</g>
</svg>
