<?xml version="1.0" encoding="utf-8"?>
<!-- Generator: Adobe Illustrator 19.1.0, SVG Export Plug-In . SVG Version: 6.00 Build 0)  -->
<svg version="1.1" id="Lager_1" xmlns="http://www.w3.org/2000/svg" xmlns:xlink="http://www.w3.org/1999/xlink" x="0px" y="0px"
	 viewBox="0 0 377 335.5" style="enable-background:new 0 0 377 335.5;" xml:space="preserve">
<style type="text/css">
	.st0{fill:#FFFFFF;}
	.st1{fill:#009CDD;}
	.st2{fill:#EC0089;}
	.st3{fill:#F7932C;}
</style>
<g>
	<path class="st0" d="M81.2,0c3,10.9,6,21.8,9.3,32.8c5.6,19.5,6.6,22.7,9.8,42.4c3-20.1,3.7-23.6,8.3-44.3
		c2.2-10.3,4.5-20.7,6.6-30.9h25.1l-25.7,101.4H88.5C85.3,90.2,82.3,79,79,68c-5.5-18.7-5.7-19.4-8.8-33.6
		c-2.6,12.5-2.9,13.5-8.6,32.9l-9.8,34.2H25.7L0,0h25.3c10.9,48.1,12.1,53.4,15.1,75.4c3.7-20.1,4.7-24,10.1-44.1L58.8,0H81.2z"/>
	<path class="st0" d="M146.8,0h75v19.7h-49.7v18.4h46.4v19.3h-46.4v24.1h54.2v20h-79.4V0z"/>
	<path class="st1" d="M9.8,116.9h25.3v80.2h39.7v21.4H9.8V116.9z"/>
	<path class="st2" d="M127.9,221.3c-32.2,0-50.4-24.7-50.4-54c0-27.4,17.4-53.4,50-53.4c6,0,12.4,0.9,18.5,3
		c31,10.8,33,44.5,33,51.4c0,17.5-8,33.3-19.2,42.4C149.9,218.9,138.4,221.3,127.9,221.3z M145.4,142.5c-4.3-4.6-10.9-7.5-17.8-7.5
		c-15.4,0-25.1,13.5-25.1,31.9c0,24.1,13.5,33,25.4,33c12.1,0,25-8.6,25.7-29.9C154,159.4,151.2,148.6,145.4,142.5z"/>
	<path class="st3" d="M247.5,117h27l-35.2,101.4h-25.9L178.7,117h27l21,72.1L247.5,117z"/>
	<path class="st0" d="M280.8,117h75v19.7h-49.7v18.4h46.4v19.3h-46.4v24.1h54.2v20h-79.4V117z"/>
	<path class="st0" d="M34.9,234.1v101.4H9.6V234.1H34.9z"/>
	<path class="st0" d="M42.4,233.9h78.2V254H94.2v81.5H68.8V254H42.4V233.9z"/>
	<path class="st0" d="M119.2,311.1h23v24.4h-23V311.1z"/>
</g>
</svg>
