<?xml version="1.0" standalone="no"?>
<!DOCTYPE svg PUBLIC "-//W3C//DTD SVG 20010904//EN"
 "http://www.w3.org/TR/2001/REC-SVG-20010904/DTD/svg10.dtd">
<svg version="1.0" xmlns="http://www.w3.org/2000/svg"
 width="400.000000pt" height="400.000000pt" viewBox="0 0 400.000000 400.000000"
 preserveAspectRatio="xMidYMid meet">
<metadata>
Created by potrace 1.11, written by Peter Selinger 2001-2013
</metadata>
<g transform="translate(0.000000,400.000000) scale(0.100000,-0.100000)"
fill="#000000" stroke="none">
<path d="M1761 3919 c-646 -68 -1218 -465 -1502 -1044 -335 -683 -243 -1541
226 -2115 63 -77 208 -221 285 -283 569 -461 1428 -550 2105 -218 451 222 796
617 954 1096 135 408 135 872 0 1280 -186 564 -630 1008 -1194 1194 -268 89
-578 120 -874 90z m506 -964 c189 -31 344 -101 392 -178 21 -34 125 -456 156
-636 11 -64 15 -173 15 -457 l0 -374 -70 0 -70 0 0 -87 c0 -70 -4 -95 -20
-120 -54 -90 -164 -96 -234 -13 -24 29 -26 39 -26 126 l0 94 -415 0 -415 0 0
-94 c0 -87 -2 -97 -26 -126 -53 -62 -118 -76 -184 -39 -57 32 -70 63 -70 168
l0 91 -71 0 -70 0 3 413 4 412 71 308 c51 216 79 317 94 339 33 45 131 105
222 133 75 24 213 50 317 59 78 7 302 -4 397 -19z"/>
<path d="M1617 2782 c-21 -22 -22 -55 -3 -71 9 -8 120 -11 387 -9 l374 3 9 27
c8 22 6 32 -9 48 -18 19 -29 20 -380 20 -338 0 -363 -1 -378 -18z"/>
<path d="M1474 2550 c-12 -5 -26 -14 -30 -22 -4 -7 -27 -114 -50 -237 -38
-200 -41 -228 -29 -252 9 -17 26 -29 46 -33 18 -3 292 -3 608 0 633 7 611 5
611 68 0 65 -78 448 -94 465 -15 14 -71 16 -529 18 -282 1 -522 -2 -533 -7z"/>
<path d="M1349 1751 c-35 -35 -39 -44 -39 -91 0 -136 155 -191 239 -84 16 20
21 41 21 82 0 50 -3 58 -39 93 -35 35 -44 39 -91 39 -47 0 -56 -4 -91 -39z"/>
<path d="M2465 1759 c-76 -67 -63 -178 27 -225 89 -46 188 22 188 130 0 43 -4
53 -39 87 -35 35 -44 39 -89 39 -43 0 -57 -5 -87 -31z"/>
</g>
</svg>
